<?xml version="1.0" encoding="utf-8"?>
<!-- Generator: Adobe Illustrator 18.1.1, SVG Export Plug-In . SVG Version: 6.00 Build 0)  -->
<svg version="1.1" id="Layer_1" xmlns="http://www.w3.org/2000/svg" xmlns:xlink="http://www.w3.org/1999/xlink" x="0px" y="0px"
	 viewBox="-120 287 371 220" enable-background="new -120 287 371 220" xml:space="preserve">
<g>
	<path shape-rendering="crispEdges" fill="#FFFFFF" d="M-60,357c0-27.6,22.4-50,50-50h191c5.5,0,10,4.5,10,10v40
		c0,27.6-22.4,50-50,50H-50c-5.5,0-10-4.5-10-10V357z"/>
	<circle fill="#FDEDEF" cx="-1" cy="357" r="30"/>
	<path fill="none" stroke="#EE4A62" stroke-width="2" stroke-linecap="round" stroke-linejoin="round" d="M6.7,348.8
		c-0.3,3.6-3,6.6-6,6.6c-3,0-5.8-2.9-6-6.6c-0.3-3.8,2.4-6.6,6-6.6C4.3,342.3,7,345.2,6.7,348.8z"/>
	<path fill="none" stroke="#EE4A62" stroke-width="2" stroke-miterlimit="10" d="M0.7,359.8c-5.9,0-12,3.3-13.1,9.5
		c-0.1,0.7,0.3,1.5,1.1,1.5h24.1c0.8,0,1.2-0.7,1.1-1.5C12.7,363.1,6.6,359.8,0.7,359.8z"/>
	<path fill="none" stroke="#EE4A62" stroke-width="2" stroke-linecap="round" stroke-linejoin="round" d="M-13,351v7.7 M-9.2,354.9
		h-7.7"/>
	<path fill="#525252" d="M45.5,364.7v3.5h3.8v1.1h-3.8v3.6h4.3v1.1h-5.6v-10.5h5.6v1.1H45.5z M55.9,365.6c1,0,1.8,0.3,2.4,0.9
		c0.6,0.6,0.9,1.5,0.9,2.6v4.8h-1.4v-4.6c0-0.8-0.2-1.4-0.6-1.9c-0.4-0.4-1-0.7-1.7-0.7c-0.7,0-1.3,0.2-1.7,0.7
		c-0.4,0.5-0.6,1.1-0.6,2v4.5h-1.4v-8.2h1.4v1.2c0.3-0.4,0.6-0.7,1.1-1C54.8,365.7,55.3,365.6,55.9,365.6z M62.8,367.1
		c0.2-0.5,0.6-0.8,1-1.1c0.4-0.3,1-0.4,1.6-0.4v1.4h-0.4c-1.5,0-2.3,0.8-2.3,2.5v4.5h-1.4v-8.2h1.4V367.1z M70.6,374.1
		c-0.8,0-1.5-0.2-2.1-0.5c-0.6-0.3-1.1-0.8-1.5-1.5c-0.3-0.6-0.5-1.4-0.5-2.3c0-0.8,0.2-1.6,0.5-2.2c0.4-0.6,0.9-1.1,1.5-1.5
		c0.6-0.3,1.3-0.5,2.1-0.5s1.5,0.2,2.1,0.5c0.6,0.3,1.1,0.8,1.5,1.5c0.4,0.6,0.6,1.4,0.6,2.2s-0.2,1.6-0.6,2.3
		c-0.4,0.6-0.9,1.1-1.5,1.5C72.1,374,71.4,374.1,70.6,374.1z M70.6,372.9c0.5,0,0.9-0.1,1.4-0.3c0.4-0.2,0.8-0.6,1-1
		c0.3-0.5,0.4-1,0.4-1.7s-0.1-1.2-0.4-1.7c-0.3-0.5-0.6-0.8-1-1c-0.4-0.2-0.9-0.3-1.4-0.3c-0.5,0-1,0.1-1.4,0.3
		c-0.4,0.2-0.7,0.6-1,1c-0.3,0.5-0.4,1-0.4,1.7c0,0.7,0.1,1.2,0.4,1.7c0.3,0.5,0.6,0.8,1,1C69.7,372.8,70.1,372.9,70.6,372.9z
		 M78,362.9V374h-1.4v-11.1H78z M81.7,362.9V374h-1.4v-11.1H81.7z M91.5,369.6c0,0.3,0,0.5,0,0.8h-6.6c0.1,0.8,0.3,1.4,0.8,1.9
		c0.5,0.5,1.1,0.7,1.8,0.7c0.6,0,1.1-0.1,1.5-0.4c0.4-0.3,0.7-0.7,0.8-1.1h1.5c-0.2,0.8-0.7,1.4-1.3,1.9c-0.7,0.5-1.5,0.7-2.5,0.7
		c-0.8,0-1.5-0.2-2.1-0.5c-0.6-0.3-1.1-0.8-1.4-1.5c-0.4-0.6-0.5-1.4-0.5-2.3s0.2-1.6,0.5-2.2c0.3-0.6,0.8-1.1,1.4-1.5
		c0.6-0.3,1.3-0.5,2.1-0.5c0.8,0,1.5,0.2,2.1,0.5s1.1,0.8,1.4,1.4C91.3,368.2,91.5,368.8,91.5,369.6z M90.1,369.3
		c0-0.5-0.1-1-0.3-1.3c-0.2-0.4-0.5-0.7-0.9-0.9c-0.4-0.2-0.8-0.3-1.3-0.3c-0.7,0-1.3,0.2-1.8,0.7c-0.5,0.4-0.8,1.1-0.8,1.8H90.1z
		 M92.8,369.9c0-0.8,0.2-1.6,0.5-2.2c0.3-0.6,0.8-1.1,1.4-1.5c0.6-0.3,1.3-0.5,2-0.5c0.6,0,1.2,0.1,1.8,0.5c0.5,0.3,1,0.7,1.3,1.2
		v-4.4h1.4V374h-1.4v-1.5c-0.3,0.5-0.7,0.9-1.2,1.2c-0.5,0.3-1.2,0.5-1.9,0.5c-0.7,0-1.4-0.2-2-0.5c-0.6-0.4-1.1-0.9-1.4-1.5
		C93,371.4,92.8,370.7,92.8,369.9z M99.8,369.9c0-0.6-0.1-1.2-0.4-1.6c-0.3-0.5-0.6-0.8-1-1c-0.4-0.3-0.9-0.4-1.4-0.4
		c-0.5,0-1,0.1-1.4,0.4s-0.8,0.6-1,1c-0.3,0.5-0.4,1-0.4,1.6c0,0.6,0.1,1.2,0.4,1.7c0.3,0.5,0.6,0.8,1,1.1c0.4,0.2,0.9,0.4,1.4,0.4
		c0.5,0,1-0.1,1.4-0.4c0.4-0.3,0.8-0.6,1-1.1C99.6,371,99.8,370.5,99.8,369.9z M108.8,372.9h3.7v1.1h-5v-10.5h1.4V372.9z
		 M121.4,369.6c0,0.3,0,0.5,0,0.8h-6.6c0,0.8,0.3,1.4,0.8,1.9c0.5,0.5,1.1,0.7,1.8,0.7c0.6,0,1.1-0.1,1.5-0.4
		c0.4-0.3,0.7-0.7,0.8-1.1h1.5c-0.2,0.8-0.7,1.4-1.3,1.9c-0.7,0.5-1.5,0.7-2.5,0.7c-0.8,0-1.5-0.2-2.1-0.5c-0.6-0.3-1.1-0.8-1.4-1.5
		c-0.3-0.6-0.5-1.4-0.5-2.3s0.2-1.6,0.5-2.2c0.3-0.6,0.8-1.1,1.4-1.5c0.6-0.3,1.3-0.5,2.1-0.5c0.8,0,1.5,0.2,2.1,0.5
		c0.6,0.3,1.1,0.8,1.4,1.4C121.3,368.2,121.4,368.8,121.4,369.6z M120,369.3c0-0.5-0.1-1-0.3-1.3c-0.2-0.4-0.5-0.7-0.9-0.9
		c-0.4-0.2-0.8-0.3-1.3-0.3c-0.7,0-1.3,0.2-1.8,0.7c-0.5,0.4-0.8,1.1-0.8,1.8H120z M122.7,369.9c0-0.8,0.2-1.6,0.5-2.2
		c0.3-0.6,0.8-1.1,1.4-1.5c0.6-0.3,1.3-0.5,2-0.5c0.7,0,1.3,0.2,1.9,0.5s0.9,0.7,1.2,1.2v-1.5h1.4v8.2h-1.4v-1.5
		c-0.3,0.5-0.7,0.9-1.2,1.2c-0.5,0.3-1.2,0.5-1.9,0.5c-0.7,0-1.4-0.2-2-0.5c-0.6-0.4-1.1-0.9-1.4-1.5
		C122.9,371.4,122.7,370.7,122.7,369.9z M129.7,369.9c0-0.6-0.1-1.2-0.4-1.6c-0.3-0.5-0.6-0.8-1-1c-0.4-0.3-0.9-0.4-1.4-0.4
		c-0.5,0-1,0.1-1.4,0.4s-0.8,0.6-1,1c-0.3,0.5-0.4,1-0.4,1.6c0,0.6,0.1,1.2,0.4,1.7c0.3,0.5,0.6,0.8,1,1.1c0.4,0.2,0.9,0.4,1.4,0.4
		c0.5,0,1-0.1,1.4-0.4c0.4-0.3,0.8-0.6,1-1.1C129.6,371,129.7,370.5,129.7,369.9z M134.7,367.1c0.2-0.5,0.6-0.8,1-1.1
		c0.5-0.3,1-0.4,1.6-0.4v1.4H137c-1.5,0-2.3,0.8-2.3,2.5v4.5h-1.4v-8.2h1.4V367.1z M143,365.6c1,0,1.8,0.3,2.4,0.9
		c0.6,0.6,0.9,1.5,0.9,2.6v4.8H145v-4.6c0-0.8-0.2-1.4-0.6-1.9c-0.4-0.4-1-0.7-1.7-0.7c-0.7,0-1.3,0.2-1.7,0.7
		c-0.4,0.5-0.6,1.1-0.6,2v4.5H139v-8.2h1.4v1.2c0.3-0.4,0.6-0.7,1.1-1C141.9,365.7,142.4,365.6,143,365.6z M156.1,369.6
		c0,0.3,0,0.5,0,0.8h-6.6c0.1,0.8,0.3,1.4,0.8,1.9c0.5,0.5,1.1,0.7,1.8,0.7c0.6,0,1.1-0.1,1.5-0.4c0.4-0.3,0.7-0.7,0.8-1.1h1.5
		c-0.2,0.8-0.7,1.4-1.3,1.9c-0.7,0.5-1.5,0.7-2.5,0.7c-0.8,0-1.5-0.2-2.1-0.5c-0.6-0.3-1.1-0.8-1.4-1.5c-0.4-0.6-0.5-1.4-0.5-2.3
		s0.2-1.6,0.5-2.2c0.3-0.6,0.8-1.1,1.4-1.5c0.6-0.3,1.3-0.5,2.1-0.5c0.8,0,1.5,0.2,2.1,0.5c0.6,0.3,1.1,0.8,1.4,1.4
		C155.9,368.2,156.1,368.8,156.1,369.6z M154.6,369.3c0-0.5-0.1-1-0.3-1.3c-0.2-0.4-0.5-0.7-0.9-0.9c-0.4-0.2-0.8-0.3-1.3-0.3
		c-0.7,0-1.3,0.2-1.8,0.7c-0.5,0.4-0.8,1.1-0.8,1.8H154.6z M159.2,367.1c0.2-0.5,0.6-0.8,1-1.1c0.5-0.3,1-0.4,1.6-0.4v1.4h-0.4
		c-1.5,0-2.3,0.8-2.3,2.5v4.5h-1.4v-8.2h1.4V367.1z M166.4,374.1c-0.6,0-1.2-0.1-1.7-0.3c-0.5-0.2-0.9-0.5-1.2-0.9
		c-0.3-0.4-0.4-0.8-0.5-1.3h1.4c0,0.4,0.2,0.7,0.6,1c0.4,0.3,0.8,0.4,1.4,0.4c0.5,0,0.9-0.1,1.2-0.3c0.3-0.2,0.5-0.5,0.5-0.9
		c0-0.4-0.2-0.6-0.5-0.8c-0.3-0.2-0.8-0.4-1.5-0.5c-0.6-0.2-1.1-0.3-1.5-0.5c-0.4-0.2-0.7-0.4-1-0.7c-0.3-0.3-0.4-0.8-0.4-1.3
		c0-0.4,0.1-0.8,0.4-1.2s0.6-0.6,1.1-0.8c0.5-0.2,1-0.3,1.6-0.3c0.9,0,1.6,0.2,2.2,0.7s0.9,1.1,0.9,1.9h-1.4c0-0.4-0.2-0.8-0.5-1
		c-0.3-0.3-0.7-0.4-1.3-0.4c-0.5,0-0.9,0.1-1.2,0.3c-0.3,0.2-0.4,0.5-0.4,0.8c0,0.3,0.1,0.5,0.3,0.7c0.2,0.2,0.4,0.3,0.7,0.4
		c0.3,0.1,0.6,0.2,1.1,0.3c0.6,0.2,1.1,0.3,1.4,0.5c0.4,0.2,0.7,0.4,0.9,0.7c0.3,0.3,0.4,0.7,0.4,1.2c0,0.4-0.1,0.9-0.4,1.2
		c-0.3,0.4-0.6,0.6-1.1,0.9C167.5,374,167,374.1,166.4,374.1z"/>
</g>
<text transform="matrix(1 0 0 1 49.6665 341.4165)" fill="#EE4A62" stroke="#EE4A62" stroke-width="1.2" stroke-miterlimit="10" font-family="'MyriadPro-Regular'" font-size="30" letter-spacing="1">200k +</text>
</svg>
