<?xml version="1.0" encoding="utf-8"?>
<!-- Generator: Adobe Illustrator 18.1.1, SVG Export Plug-In . SVG Version: 6.00 Build 0)  -->
<svg version="1.1" id="Layer_1" xmlns="http://www.w3.org/2000/svg" xmlns:xlink="http://www.w3.org/1999/xlink" x="0px" y="0px"
	 viewBox="-283 377 45 40" enable-background="new -283 377 45 40" xml:space="preserve">
<g id="Calendar__x2F__Calendar_x5F_Check">
	<path id="Vector" fill="none" stroke="#EE4A62" stroke-width="3" stroke-miterlimit="10" d="M-280.5,390h40.8 M-280.5,390v18.7
		c0,2.4,0,3.6,0.6,4.5c0.5,0.8,1.3,1.5,2.2,1.9c1.1,0.5,2.5,0.5,5.4,0.5h24.5c2.8,0,4.3,0,5.4-0.5c1-0.4,1.7-1.1,2.2-1.9
		c0.6-0.9,0.6-2.1,0.6-4.5V390 M-280.5,390v-1.7c0-2.4,0-3.6,0.6-4.5c0.5-0.8,1.3-1.4,2.2-1.9c1.1-0.5,2.5-0.5,5.4-0.5h2
		 M-239.8,390v-1.7c0-2.4,0-3.6-0.6-4.5c-0.5-0.8-1.3-1.4-2.2-1.9c-1.1-0.5-2.5-0.5-5.4-0.5h-2 M-270.3,381.5h20.4 M-270.3,381.5
		v-4.3 M-249.9,381.5v-4.3 M-252.5,398.5l-10.2,8.5l-5.1-4.3"/>
</g>
</svg>
