<?xml version="1.0" encoding="utf-8"?>
<!-- Generator: Adobe Illustrator 18.1.1, SVG Export Plug-In . SVG Version: 6.00 Build 0)  -->
<svg version="1.1" id="Layer_1" xmlns="http://www.w3.org/2000/svg" xmlns:xlink="http://www.w3.org/1999/xlink" x="0px" y="0px"
	 viewBox="-288 377 34 40" enable-background="new -288 377 34 40" xml:space="preserve">
<g>
	<path fill="#1AB69D" d="M-271,394.1c2.5,0,4.6-2.4,4.6-5.4s-2.1-5.4-4.6-5.4s-4.6,2.4-4.6,5.4S-273.5,394.1-271,394.1z M-271,384.5
		c1.9,0,3.5,1.9,3.5,4.2c0,2.3-1.6,4.2-3.5,4.2s-3.5-1.9-3.5-4.2C-274.5,386.4-272.9,384.5-271,384.5z"/>
	<path fill="#1AB69D" d="M-280.3,400.4c0,5,0,6.2,0,6.2s9.1,0,9.1,0l-4.4-11.3C-275.7,395.3-280.3,395.4-280.3,400.4z M-279.2,405.4
		v-5c0-2.8,1.9-3.6,2.9-3.8l3.4,8.7H-279.2z"/>
	<path fill="#1AB69D" d="M-266.3,395.3l-4.4,11.3h9.1c0,0,0-1.2,0-6.2C-261.7,395.4-266.3,395.3-266.3,395.3z M-262.8,405.4h-6.4
		l3.4-8.7c1.1,0.2,2.9,1,2.9,3.8V405.4L-262.8,405.4z"/>
	<polygon fill="#1AB69D" points="-271,395.3 -274.2,395.3 -271,403.6 -267.8,395.3 	"/>
	<path fill="#1AB69D" d="M-271,377c-9.4,0-17,9-17,20s7.6,20,17,20c9.4,0,17-9,17-20S-261.6,377-271,377z M-271,415.8
		c-8.8,0-15.9-8.4-15.9-18.8c0-10.3,7.1-18.7,15.9-18.7c8.8,0,15.9,8.4,15.9,18.8C-255.1,407.3-262.2,415.8-271,415.8z"/>
</g>
</svg>
