<?xml version="1.0" encoding="utf-8"?>
<!-- Generator: Adobe Illustrator 18.1.1, SVG Export Plug-In . SVG Version: 6.00 Build 0)  -->
<svg version="1.1" id="Layer_1" xmlns="http://www.w3.org/2000/svg" xmlns:xlink="http://www.w3.org/1999/xlink" x="0px" y="0px"
	 viewBox="-285 377 40 40" enable-background="new -285 377 40 40" xml:space="preserve">
<path fill="#F8941F" d="M-247,395.4c-0.5,0-0.8,0.4-0.8,0.8v3.3c0,1.8-1.5,3.3-3.3,3.3h-27.8c-1.8,0-3.3-1.5-3.3-3.3v-16.4
	c0-1.8,1.5-3.3,3.3-3.3h27.8c1.8,0,3.3,1.5,3.3,3.3c0,0.5,0.4,0.8,0.8,0.8s0.8-0.4,0.8-0.8l0,0c0-2.7-2.2-4.9-4.9-4.9h-27.8
	c-2.7,0-4.9,2.2-4.9,4.9v16.4c0,2.7,2.2,4.9,4.9,4.9h27.8c2.7,0,4.9-2.2,4.9-4.9v-3.3C-246.2,395.7-246.5,395.4-247,395.4
	L-247,395.4z"/>
<path fill="#F8941F" d="M-247,388.8c-0.5,0-0.8,0.4-0.8,0.8v3.3c0,0.5,0.4,0.8,0.8,0.8s0.8-0.4,0.8-0.8v-3.3
	C-246.2,389.2-246.5,388.8-247,388.8L-247,388.8z M-247.6,385.8c-0.3,0.3-0.3,0.8,0,1.2c0,0,0,0,0,0c0.3,0.3,0.8,0.3,1.2,0
	c0,0,0,0,0,0l0.1-0.1c0,0,0.1-0.1,0.1-0.1c0,0,0.1-0.1,0.1-0.1c0-0.1,0-0.1,0-0.2c0-0.5-0.4-0.8-0.8-0.8
	C-247.2,385.5-247.4,385.6-247.6,385.8L-247.6,385.8z M-250.3,414.2h-29.5c-0.5,0-0.8,0.4-0.8,0.8c0,0.5,0.4,0.8,0.8,0.8h29.5
	c0.5,0,0.8-0.4,0.8-0.8C-249.4,414.6-249.8,414.2-250.3,414.2L-250.3,414.2z M-258.5,410.1c0.5,0,0.8-0.4,0.8-0.8
	c0-0.5-0.4-0.8-0.8-0.8h-13.1c-0.5,0-0.8,0.4-0.8,0.8c0,0.5,0.4,0.8,0.8,0.8H-258.5z M-274.8,399.5c0,0.5,0.4,0.8,0.8,0.8h9.9
	c0.2,0,0.4-0.1,0.5-0.2l5.2-4.1l0.1-0.1l0.1-0.1c0-0.1,0.1-0.1,0.1-0.2l4.2-10.6c0.2-0.4,0.1-0.9-0.3-1.1c0,0,0,0-0.1,0l-6.1-2.5
	c-0.4-0.2-0.9,0-1.1,0.5c0,0,0,0,0,0l-4.2,10.6c-0.1,0.1-0.1,0.2-0.1,0.4v0.1l0.8,5.6h-9C-274.5,398.6-274.8,399-274.8,399.5z
	 M-264,394.2l3.5,1.4l-2.9,2.3L-264,394.2z M-260.3,383.3l4.6,1.8l-3.6,9.1l-4.6-1.8L-260.3,383.3z"/>
</svg>
